<svg width="224" height="87" viewBox="0 0 224 87" fill="none" xmlns="http://www.w3.org/2000/svg">
<g id="Vector">
<path d="M24.448 48.256C20.9067 48.256 17.6427 47.7013 14.656 46.592C11.712 45.44 9.13067 43.8187 6.912 41.728C4.736 39.6373 3.02933 37.184 1.792 34.368C0.597333 31.552 0 28.4587 0 25.088C0 21.7173 0.597333 18.624 1.792 15.808C3.02933 12.992 4.75733 10.5387 6.976 8.448C9.19467 6.35733 11.7973 4.75733 14.784 3.648C17.7707 2.496 21.056 1.92 24.64 1.92C28.608 1.92 32.1707 2.58133 35.328 3.904C38.528 5.22667 41.216 7.14667 43.392 9.664L36.736 15.808C35.1147 14.1013 33.344 12.8427 31.424 12.032C29.504 11.1787 27.4133 10.752 25.152 10.752C22.976 10.752 20.992 11.0933 19.2 11.776C17.408 12.4587 15.8507 13.44 14.528 14.72C13.248 16 12.2453 17.5147 11.52 19.264C10.8373 21.0133 10.496 22.9547 10.496 25.088C10.496 27.1787 10.8373 29.0987 11.52 30.848C12.2453 32.5973 13.248 34.1333 14.528 35.456C15.8507 36.736 17.3867 37.7173 19.136 38.4C20.928 39.0827 22.8907 39.424 25.024 39.424C27.072 39.424 29.056 39.104 30.976 38.464C32.9387 37.7813 34.8373 36.6507 36.672 35.072L42.56 42.56C40.128 44.3947 37.2907 45.8027 34.048 46.784C30.848 47.7653 27.648 48.256 24.448 48.256ZM33.088 41.216V24.384H42.56V42.56L33.088 41.216Z" fill="black"/>
<path d="M72.607 47.488V40.768L71.967 39.296V27.264C71.967 25.1307 71.3057 23.4667 69.983 22.272C68.703 21.0773 66.719 20.48 64.031 20.48C62.1963 20.48 60.383 20.7787 58.591 21.376C56.8417 21.9307 55.3483 22.6987 54.111 23.68L50.527 16.704C52.4043 15.3813 54.6657 14.3573 57.311 13.632C59.9563 12.9067 62.6443 12.544 65.375 12.544C70.623 12.544 74.6977 13.7813 77.599 16.256C80.5003 18.7307 81.951 22.592 81.951 27.84V47.488H72.607ZM62.111 48C59.423 48 57.119 47.552 55.199 46.656C53.279 45.7173 51.807 44.4587 50.783 42.88C49.759 41.3013 49.247 39.5307 49.247 37.568C49.247 35.52 49.7377 33.728 50.719 32.192C51.743 30.656 53.343 29.4613 55.519 28.608C57.695 27.712 60.5323 27.264 64.031 27.264H73.183V33.088H65.119C62.7723 33.088 61.151 33.472 60.255 34.24C59.4017 35.008 58.975 35.968 58.975 37.12C58.975 38.4 59.4657 39.424 60.447 40.192C61.471 40.9173 62.8577 41.28 64.607 41.28C66.271 41.28 67.7643 40.896 69.087 40.128C70.4097 39.3173 71.3697 38.144 71.967 36.608L73.503 41.216C72.7777 43.4347 71.455 45.12 69.535 46.272C67.615 47.424 65.1403 48 62.111 48Z" fill="black"/>
<path d="M90.987 47.488V0H100.971V47.488H90.987Z" fill="black"/>
<path d="M121.821 48C118.877 48 116.04 47.6587 113.309 46.976C110.621 46.2507 108.488 45.3547 106.909 44.288L110.237 37.12C111.816 38.1013 113.672 38.912 115.805 39.552C117.981 40.1493 120.114 40.448 122.205 40.448C124.509 40.448 126.13 40.1707 127.069 39.616C128.05 39.0613 128.541 38.2933 128.541 37.312C128.541 36.5013 128.157 35.904 127.389 35.52C126.664 35.0933 125.682 34.7733 124.445 34.56C123.208 34.3467 121.842 34.1333 120.349 33.92C118.898 33.7067 117.426 33.4293 115.933 33.088C114.44 32.704 113.074 32.1493 111.837 31.424C110.6 30.6987 109.597 29.7173 108.829 28.48C108.104 27.2427 107.741 25.6427 107.741 23.68C107.741 21.504 108.36 19.584 109.597 17.92C110.877 16.256 112.712 14.9547 115.101 14.016C117.49 13.0347 120.349 12.544 123.677 12.544C126.024 12.544 128.413 12.8 130.845 13.312C133.277 13.824 135.304 14.5707 136.925 15.552L133.597 22.656C131.933 21.6747 130.248 21.0133 128.541 20.672C126.877 20.288 125.256 20.096 123.677 20.096C121.458 20.096 119.837 20.3947 118.813 20.992C117.789 21.5893 117.277 22.3573 117.277 23.296C117.277 24.1493 117.64 24.7893 118.365 25.216C119.133 25.6427 120.136 25.984 121.373 26.24C122.61 26.496 123.954 26.7307 125.405 26.944C126.898 27.1147 128.392 27.392 129.885 27.776C131.378 28.16 132.722 28.7147 133.917 29.44C135.154 30.1227 136.157 31.0827 136.925 32.32C137.693 33.5147 138.077 35.0933 138.077 37.056C138.077 39.1893 137.437 41.088 136.157 42.752C134.877 44.3733 133.021 45.6533 130.589 46.592C128.2 47.5307 125.277 48 121.821 48Z" fill="black"/>
<path d="M161.325 48C157.4 48 153.944 47.232 150.957 45.696C148.013 44.16 145.73 42.0693 144.109 39.424C142.488 36.736 141.677 33.6853 141.677 30.272C141.677 26.816 142.466 23.7653 144.045 21.12C145.666 18.432 147.864 16.3413 150.637 14.848C153.41 13.312 156.546 12.544 160.045 12.544C163.416 12.544 166.445 13.2693 169.133 14.72C171.864 16.128 174.018 18.176 175.597 20.864C177.176 23.5093 177.965 26.688 177.965 30.4C177.965 30.784 177.944 31.232 177.901 31.744C177.858 32.2133 177.816 32.6613 177.773 33.088H149.805V27.264H172.525L168.685 28.992C168.685 27.2 168.322 25.6427 167.597 24.32C166.872 22.9973 165.869 21.9733 164.589 21.248C163.309 20.48 161.816 20.096 160.109 20.096C158.402 20.096 156.888 20.48 155.565 21.248C154.285 21.9733 153.282 23.0187 152.557 24.384C151.832 25.7067 151.469 27.2853 151.469 29.12V30.656C151.469 32.5333 151.874 34.1973 152.685 35.648C153.538 37.056 154.712 38.144 156.205 38.912C157.741 39.6373 159.533 40 161.581 40C163.416 40 165.016 39.7227 166.381 39.168C167.789 38.6133 169.069 37.7813 170.221 36.672L175.533 42.432C173.954 44.224 171.97 45.6107 169.581 46.592C167.192 47.5307 164.44 48 161.325 48Z" fill="black"/>
<path d="M205.54 12.544C208.271 12.544 210.703 13.0987 212.836 14.208C215.012 15.2747 216.719 16.9387 217.956 19.2C219.193 21.4187 219.812 24.2773 219.812 27.776V47.488H209.828V29.312C209.828 26.5387 209.209 24.4907 207.972 23.168C206.777 21.8453 205.071 21.184 202.852 21.184C201.273 21.184 199.844 21.5253 198.564 22.208C197.327 22.848 196.345 23.8507 195.62 25.216C194.937 26.5813 194.596 28.3307 194.596 30.464V47.488H184.612V13.056H194.148V22.592L192.356 19.712C193.593 17.408 195.364 15.6373 197.668 14.4C199.972 13.1627 202.596 12.544 205.54 12.544Z" fill="black"/>
<path d="M100.824 86.488V58.488H106.184L118.104 78.248H115.264L126.984 58.488H132.304L132.384 86.488H126.304L126.264 67.808H127.384L118.024 83.528H115.104L105.544 67.808H106.904V86.488H100.824Z" fill="#20D114"/>
<path d="M149.267 86.808C146.814 86.808 144.654 86.328 142.787 85.368C140.947 84.408 139.52 83.1013 138.507 81.448C137.494 79.768 136.987 77.8613 136.987 75.728C136.987 73.568 137.48 71.6613 138.467 70.008C139.48 68.328 140.854 67.0213 142.587 66.088C144.32 65.128 146.28 64.648 148.467 64.648C150.574 64.648 152.467 65.1013 154.147 66.008C155.854 66.888 157.2 68.168 158.187 69.848C159.174 71.5013 159.667 73.488 159.667 75.808C159.667 76.048 159.654 76.328 159.627 76.648C159.6 76.9413 159.574 77.2213 159.547 77.488H142.067V73.848H156.267L153.867 74.928C153.867 73.808 153.64 72.8347 153.187 72.008C152.734 71.1813 152.107 70.5413 151.307 70.088C150.507 69.608 149.574 69.368 148.507 69.368C147.44 69.368 146.494 69.608 145.667 70.088C144.867 70.5413 144.24 71.1947 143.787 72.048C143.334 72.8747 143.107 73.8613 143.107 75.008V75.968C143.107 77.1413 143.36 78.1813 143.867 79.088C144.4 79.968 145.134 80.648 146.067 81.128C147.027 81.5813 148.147 81.808 149.427 81.808C150.574 81.808 151.574 81.6347 152.427 81.288C153.307 80.9413 154.107 80.4213 154.827 79.728L158.147 83.328C157.16 84.448 155.92 85.3147 154.427 85.928C152.934 86.5147 151.214 86.808 149.267 86.808Z" fill="#20D114"/>
<path d="M173.061 86.808C171.035 86.808 169.208 86.3547 167.581 85.448C165.955 84.5147 164.662 83.2213 163.702 81.568C162.768 79.9147 162.301 77.968 162.301 75.728C162.301 73.4613 162.768 71.5013 163.702 69.848C164.662 68.1947 165.955 66.9147 167.581 66.008C169.208 65.1013 171.035 64.648 173.061 64.648C174.875 64.648 176.462 65.048 177.822 65.848C179.182 66.648 180.235 67.8613 180.982 69.488C181.728 71.1147 182.102 73.1947 182.102 75.728C182.102 78.2347 181.742 80.3147 181.021 81.968C180.301 83.5947 179.262 84.808 177.902 85.608C176.568 86.408 174.955 86.808 173.061 86.808ZM174.141 81.688C175.155 81.688 176.075 81.448 176.902 80.968C177.728 80.488 178.382 79.808 178.861 78.928C179.368 78.0213 179.622 76.9547 179.622 75.728C179.622 74.4747 179.368 73.408 178.861 72.528C178.382 71.648 177.728 70.968 176.902 70.488C176.075 70.008 175.155 69.768 174.141 69.768C173.102 69.768 172.168 70.008 171.342 70.488C170.515 70.968 169.848 71.648 169.342 72.528C168.862 73.408 168.622 74.4747 168.622 75.728C168.622 76.9547 168.862 78.0213 169.342 78.928C169.848 79.808 170.515 80.488 171.342 80.968C172.168 81.448 173.102 81.688 174.141 81.688ZM179.781 86.488V82.088L179.902 75.688L179.501 69.328V56.808H185.742V86.488H179.781Z" fill="#20D114"/>
<path d="M191.517 86.488V64.968H197.757V86.488H191.517ZM194.637 61.968C193.49 61.968 192.557 61.6347 191.837 60.968C191.117 60.3013 190.757 59.4747 190.757 58.488C190.757 57.5013 191.117 56.6747 191.837 56.008C192.557 55.3413 193.49 55.008 194.637 55.008C195.783 55.008 196.717 55.328 197.437 55.968C198.157 56.5813 198.517 57.3813 198.517 58.368C198.517 59.408 198.157 60.2747 197.437 60.968C196.743 61.6347 195.81 61.968 194.637 61.968Z" fill="#20D114"/>
<path d="M213.948 86.808C211.628 86.808 209.561 86.3413 207.748 85.408C205.935 84.448 204.508 83.128 203.468 81.448C202.455 79.768 201.948 77.8613 201.948 75.728C201.948 73.568 202.455 71.6613 203.468 70.008C204.508 68.328 205.935 67.0213 207.748 66.088C209.561 65.128 211.628 64.648 213.948 64.648C216.215 64.648 218.188 65.128 219.868 66.088C221.548 67.0213 222.788 68.368 223.588 70.128L218.748 72.728C218.188 71.7147 217.481 70.968 216.628 70.488C215.801 70.008 214.895 69.768 213.908 69.768C212.841 69.768 211.881 70.008 211.028 70.488C210.175 70.968 209.495 71.648 208.988 72.528C208.508 73.408 208.268 74.4747 208.268 75.728C208.268 76.9813 208.508 78.048 208.988 78.928C209.495 79.808 210.175 80.488 211.028 80.968C211.881 81.448 212.841 81.688 213.908 81.688C214.895 81.688 215.801 81.4613 216.628 81.008C217.481 80.528 218.188 79.768 218.748 78.728L223.588 81.368C222.788 83.1013 221.548 84.448 219.868 85.408C218.188 86.3413 216.215 86.808 213.948 86.808Z" fill="#20D114"/>
</g>
</svg>
